<svg width="800" height="600" xmlns="http://www.w3.org/2000/svg">
  <defs>
    <linearGradient id="bgGradient" x1="0%" y1="0%" x2="100%" y2="100%">
      <stop offset="0%" style="stop-color:#2e7d32;stop-opacity:1" />
      <stop offset="50%" style="stop-color:#43a047;stop-opacity:1" />
      <stop offset="100%" style="stop-color:#66bb6a;stop-opacity:1" />
    </linearGradient>
    <filter id="shadow" x="-20%" y="-20%" width="140%" height="140%">
      <feDropShadow dx="0" dy="10" stdDeviation="10" flood-color="rgba(0,0,0,0.2)"/>
    </filter>
  </defs>
  
  <!-- 背景 -->
  <rect width="800" height="600" rx="20" fill="url(#bgGradient)" filter="url(#shadow)"/>
  
  <!-- 装饰圆圈 -->
  <circle cx="100" cy="100" r="75" fill="none" stroke="rgba(255,255,255,0.2)" stroke-width="2"/>
  <circle cx="720" cy="520" r="50" fill="none" stroke="rgba(255,255,255,0.2)" stroke-width="2"/>
  <circle cx="750" cy="150" r="100" fill="none" stroke="rgba(255,255,255,0.2)" stroke-width="2"/>
  
  <!-- 最受欢迎标签 -->
  <rect x="620" y="30" width="150" height="40" rx="20" fill="#d4af37"/>
  <text x="695" y="52" text-anchor="middle" fill="white" font-family="Arial, sans-serif" font-size="14" font-weight="bold">最受欢迎</text>
  
  <!-- 主标题 -->
  <text x="400" y="120" text-anchor="middle" fill="white" font-family="Arial, sans-serif" font-size="48" font-weight="bold">江南旅游博客</text>
  
  <!-- 套餐名称 -->
  <text x="400" y="180" text-anchor="middle" fill="#d4af37" font-family="Arial, sans-serif" font-size="36" font-weight="bold">标准旅游套餐</text>
  
  <!-- 功能特性 -->
  <g fill="white" font-family="Arial, sans-serif" font-size="18">
    <!-- 左列 -->
    <rect x="150" y="220" width="250" height="40" rx="10" fill="rgba(255,255,255,0.15)"/>
    <text x="275" y="243" text-anchor="middle">✓ 个性化路线定制</text>
    
    <rect x="150" y="280" width="250" height="40" rx="10" fill="rgba(255,255,255,0.15)"/>
    <text x="275" y="303" text-anchor="middle">✓ 深度景点攻略</text>
    
    <rect x="150" y="340" width="250" height="40" rx="10" fill="rgba(255,255,255,0.15)"/>
    <text x="275" y="363" text-anchor="middle">✓ 交通住宿建议</text>
    
    <!-- 右列 -->
    <rect x="420" y="220" width="250" height="40" rx="10" fill="rgba(255,255,255,0.15)"/>
    <text x="545" y="243" text-anchor="middle">✓ 美食地图推荐</text>
    
    <rect x="420" y="280" width="250" height="40" rx="10" fill="rgba(255,255,255,0.15)"/>
    <text x="545" y="303" text-anchor="middle">✓ 紧急联系服务</text>
    
    <rect x="420" y="340" width="250" height="40" rx="10" fill="rgba(255,255,255,0.15)"/>
    <text x="545" y="363" text-anchor="middle">✓ 3个月咨询服务</text>
  </g>
  
  <!-- 价格 -->
  <text x="400" y="480" text-anchor="middle" fill="#d4af37" font-family="Arial, sans-serif" font-size="48" font-weight="bold">$199 USD</text>
  
  <!-- 联系信息 -->
  <text x="400" y="520" text-anchor="middle" fill="rgba(255,255,255,0.8)" font-family="Arial, sans-serif" font-size="14">danny@51ntoo.com</text>
</svg>