<svg xmlns="http://www.w3.org/2000/svg" viewBox="0 0 800 600">
  <defs>
    <linearGradient id="skyGrad" x1="0%" y1="0%" x2="0%" y2="100%">
      <stop offset="0%" style="stop-color:#87ceeb;stop-opacity:1" />
      <stop offset="100%" style="stop-color:#e0f6ff;stop-opacity:1" />
    </linearGradient>
    <linearGradient id="buildingGrad" x1="0%" y1="0%" x2="0%" y2="100%">
      <stop offset="0%" style="stop-color:#f5f5f5;stop-opacity:1" />
      <stop offset="100%" style="stop-color:#e0e0e0;stop-opacity:1" />
    </linearGradient>
  </defs>
  
  <!-- Sky -->
  <rect width="800" height="300" fill="url(#skyGrad)"/>
  
  <!-- Ground -->
  <rect x="0" y="300" width="800" height="300" fill="#e8f5e9"/>
  
  <!-- Modern market buildings -->
  <rect x="100" y="150" width="150" height="150" fill="url(#buildingGrad)" stroke="#bdbdbd"/>
  <rect x="300" y="120" width="200" height="180" fill="url(#buildingGrad)" stroke="#bdbdbd"/>
  <rect x="550" y="140" width="180" height="160" fill="url(#buildingGrad)" stroke="#bdbdbd"/>
  
  <!-- Building signs -->
  <rect x="120" y="170" width="110" height="20" fill="#2196f3"/>
  <text x="175" y="185" text-anchor="middle" font-family="sans-serif" font-size="12" fill="#fff">YIWU MARKET</text>
  
  <rect x="320" y="140" width="160" height="25" fill="#f44336"/>
  <text x="400" y="158" text-anchor="middle" font-family="sans-serif" font-size="14" fill="#fff">INTERNATIONAL TRADE</text>
  
  <rect x="570" y="160" width="140" height="20" fill="#4caf50"/>
  <text x="640" y="175" text-anchor="middle" font-family="sans-serif" font-size="12" fill="#fff">WHOLESALE CENTER</text>
  
  <!-- Windows -->
  <rect x="120" y="200" width="15" height="20" fill="#333" opacity="0.8"/>
  <rect x="145" y="200" width="15" height="20" fill="#333" opacity="0.8"/>
  <rect x="170" y="200" width="15" height="20" fill="#333" opacity="0.8"/>
  <rect x="195" y="200" width="15" height="20" fill="#333" opacity="0.8"/>
  <rect x="220" y="200" width="15" height="20" fill="#333" opacity="0.8"/>
  
  <rect x="320" y="180" width="20" height="25" fill="#333" opacity="0.8"/>
  <rect x="350" y="180" width="20" height="25" fill="#333" opacity="0.8"/>
  <rect x="380" y="180" width="20" height="25" fill="#333" opacity="0.8"/>
  <rect x="410" y="180" width="20" height="25" fill="#333" opacity="0.8"/>
  <rect x="440" y="180" width="20" height="25" fill="#333" opacity="0.8"/>
  <rect x="470" y="180" width="20" height="25" fill="#333" opacity="0.8"/>
  
  <rect x="570" y="200" width="18" height="22" fill="#333" opacity="0.8"/>
  <rect x="600" y="200" width="18" height="22" fill="#333" opacity="0.8"/>
  <rect x="630" y="200" width="18" height="22" fill="#333" opacity="0.8"/>
  <rect x="660" y="200" width="18" height="22" fill="#333" opacity="0.8"/>
  <rect x="690" y="200" width="18" height="22" fill="#333" opacity="0.8"/>
  
  <!-- Entrance doors -->
  <rect x="160" y="270" width="30" height="40" fill="#8d6e63"/>
  <rect x="380" y="260" width="40" height="50" fill="#8d6e63"/>
  <rect x="620" y="265" width="35" height="45" fill="#8d6e63"/>
  
  <!-- Trucks and containers -->
  <rect x="50" y="350" width="80" height="30" fill="#ff9800"/>
  <rect x="20" y="360" width="50" height="20" fill="#f57c00"/>
  <circle cx="35" cy="385" r="8" fill="#333"/>
  <circle cx="115" cy="385" r="8" fill="#333"/>
  
  <rect x="200" y="340" width="90" height="35" fill="#4caf50"/>
  <rect x="170" y="355" width="60" height="25" fill="#388e3c"/>
  <circle cx="185" cy="385" r="8" fill="#333"/>
  <circle cx="275" cy="385" r="8" fill="#333"/>
  
  <!-- Cargo containers -->
  <rect x="500" y="350" width="100" height="40" fill="#2196f3"/>
  <rect x="620" y="345" width="90" height="35" fill="#9c27b0"/>
  <rect x="730" y="355" width="60" height="30" fill="#ff5722"/>
  
  <!-- People (simplified) -->
  <circle cx="250" cy="320" r="5" fill="#ffdbcb"/>
  <rect x="247" y="325" width="6" height="15" fill="#2196f3"/>
  <rect x="245" y="340" width="10" height="8" fill="#333"/>
  
  <circle cx="450" cy="315" r="5" fill="#ffdbcb"/>
  <rect x="447" y="320" width="6" height="15" fill="#f44336"/>
  <rect x="445" y="335" width="10" height="8" fill="#333"/>
  
  <circle cx="650" cy="325" r="5" fill="#ffdbcb"/>
  <rect x="647" y="330" width="6" height="15" fill="#4caf50"/>
  <rect x="645" y="345" width="10" height="8" fill="#333"/>
  
  <!-- Goods/packages -->
  <rect x="120" y="320" width="15" height="15" fill="#ff9800"/>
  <rect x="140" y="315" width="12" height="20" fill="#4caf50"/>
  <rect x="155" y="325" width="18" height="10" fill="#2196f3"/>
  
  <rect x="350" y="310" width="20" height="20" fill="#f44336"/>
  <rect x="375" y="315" width="15" height="15" fill="#9c27b0"/>
  <rect x="395" y="320" width="12" height="10" fill="#ff9800"/>
  
  <rect x="580" y="315" width="18" height="18" fill="#4caf50"/>
  <rect x="605" y="320" width="14" height="12" fill="#2196f3"/>
  <rect x="625" y="318" width="16" height="14" fill="#ff5722"/>
  
  <!-- Flags -->
  <rect x="175" y="120" width="3" height="30" fill="#8d6e63"/>
  <polygon points="178,120 178,135 200,130" fill="#f44336"/>
  
  <rect x="400" y="100" width="3" height="35" fill="#8d6e63"/>
  <polygon points="403,100 403,118 430,112" fill="#2196f3"/>
  
  <!-- Title -->
  <text x="400" y="60" text-anchor="middle" font-family="serif" font-size="36" fill="#2196f3" font-weight="bold">义乌国际商贸城</text>
  <text x="400" y="90" text-anchor="middle" font-family="serif" font-size="18" fill="#666">Yiwu International Trade Market</text>
  
  <!-- Clouds -->
  <ellipse cx="150" cy="80" rx="40" ry="20" fill="#ffffff" opacity="0.8"/>
  <ellipse cx="650" cy="70" rx="35" ry="18" fill="#ffffff" opacity="0.8"/>
</svg>